<svg xmlns="http://www.w3.org/2000/svg" width="103" height="30" viewBox="0 0 103 30">
  <g fill="none" fill-rule="evenodd" transform="translate(-1 -1)">
    <g stroke="#F24B3D" stroke-width="1.5">
      <rect width="13.5" height="28.5" x="9.75" y="1.75" transform="rotate(-45 16.5 16)" rx="2.5"/>
      <rect width="13.5" height="28.5" x="9.75" y="1.75" transform="rotate(45 16.5 16)" rx="2.5"/>
    </g>
    <path fill="#3F4951" d="M47.418,9.22 C48.1500037,9.22 48.7949972,9.33399886 49.353,9.562 C49.9110028,9.79000114 50.384998,10.0689983 50.775,10.399 C51.1650019,10.7290016 51.461999,11.0829981 51.666,11.461 C51.870001,11.8390019 51.9779999,12.1779985 51.99,12.478 C52.0020001,12.5860005 51.9660004,12.6789996 51.882,12.757 C51.7979996,12.8350004 51.7020005,12.874 51.594,12.874 L50.856,12.874 C50.7239993,12.874 50.6190004,12.8500002 50.541,12.802 C50.4629996,12.7539998 50.3820004,12.6460008 50.298,12.478 C50.2379997,12.3579994 50.1390007,12.2050009 50.001,12.019 C49.8629993,11.8329991 49.6770012,11.6530009 49.443,11.479 C49.2089988,11.3049991 48.9240017,11.1550006 48.588,11.029 C48.2519983,10.9029994 47.8620022,10.84 47.418,10.84 C47.0819983,10.84 46.7610015,10.8789996 46.455,10.957 C46.1489985,11.0350004 45.8760012,11.1519992 45.636,11.308 C45.3959988,11.4640008 45.2040007,11.6589988 45.06,11.893 C44.9159993,12.1270012 44.844,12.3999984 44.844,12.712 C44.844,13.0240016 44.9129993,13.2879989 45.051,13.504 C45.1890007,13.7200011 45.4109985,13.9149991 45.717,14.089 C46.0230015,14.2630009 46.4099977,14.4219993 46.878,14.566 C47.3460023,14.7100007 47.9159966,14.8719991 48.588,15.052 C49.2720034,15.2320009 49.8509976,15.4299989 50.325,15.646 C50.7990024,15.8620011 51.1859985,16.1049986 51.486,16.375 C51.7860015,16.6450014 52.0049993,16.9569982 52.143,17.311 C52.2810007,17.6650018 52.35,18.0639978 52.35,18.508 C52.35,19.0480027 52.2330012,19.5429977 51.999,19.993 C51.7649988,20.4430022 51.4380021,20.8299984 51.018,21.154 C50.5979979,21.4780016 50.091003,21.7299991 49.497,21.91 C48.902997,22.0900009 48.2400037,22.18 47.508,22.18 C46.8119965,22.18 46.1700029,22.078001 45.582,21.874 C44.9939971,21.669999 44.4900021,21.4060016 44.07,21.082 C43.6499979,20.7579984 43.3170012,20.398002 43.071,20.002 C42.8249988,19.605998 42.6960001,19.2160019 42.684,18.832 C42.684,18.7239995 42.7229996,18.6310004 42.801,18.553 C42.8790004,18.4749996 42.9719995,18.436 43.08,18.436 L43.818,18.436 C43.9380006,18.436 44.0429995,18.4599998 44.133,18.508 C44.2230004,18.5560002 44.3039996,18.6639992 44.376,18.832 C44.4480004,19.0000008 44.5589992,19.182999 44.709,19.381 C44.8590007,19.579001 45.0599987,19.7649991 45.312,19.939 C45.5640013,20.1130009 45.8699982,20.2599994 46.23,20.38 C46.5900018,20.5000006 47.0159975,20.56 47.508,20.56 C47.9280021,20.56 48.3269981,20.5120005 48.705,20.416 C49.0830019,20.3199995 49.4159986,20.1820009 49.704,20.002 C49.9920014,19.8219991 50.2199992,19.6060013 50.388,19.354 C50.5560008,19.1019987 50.64,18.8200016 50.64,18.508 C50.64,18.1959984 50.544001,17.9290011 50.352,17.707 C50.159999,17.4849989 49.8840018,17.2840009 49.524,17.104 C49.1639982,16.9239991 48.7230026,16.7590007 48.201,16.609 C47.6789974,16.4589992 47.0880033,16.3000008 46.428,16.132 C45.827997,15.9759992 45.3180021,15.7870011 44.898,15.565 C44.4779979,15.3429989 44.1360013,15.0880014 43.872,14.8 C43.6079987,14.5119986 43.4190006,14.1940017 43.305,13.846 C43.1909994,13.4979983 43.134,13.120002 43.134,12.712 C43.134,12.2679978 43.2239991,11.8360021 43.404,11.416 C43.5840009,10.9959979 43.8509982,10.6240016 44.205,10.3 C44.5590018,9.97599838 45.0029973,9.71500099 45.537,9.517 C46.0710027,9.31899901 46.6979964,9.22 47.418,9.22 Z M56.922,18.85 C56.922,19.0780011 56.9429998,19.290999 56.985,19.489 C57.0270002,19.687001 57.1019995,19.8579993 57.21,20.002 C57.3180005,20.1460007 57.470999,20.2569996 57.669,20.335 C57.867001,20.4130004 58.1219984,20.452 58.434,20.452 L59.388,20.452 C59.5200007,20.452 59.6339995,20.4999995 59.73,20.596 C59.8260005,20.6920005 59.874,20.8059993 59.874,20.938 L59.874,21.514 C59.874,21.6460007 59.8260005,21.7599995 59.73,21.856 C59.6339995,21.9520005 59.5200007,22 59.388,22 L58.254,22 C57.2099948,22 56.4540023,21.7300027 55.986,21.19 C55.5179977,20.6499973 55.284,19.8700051 55.284,18.85 L55.284,14.188 L53.952,14.188 C53.8199993,14.188 53.7060005,14.1400005 53.61,14.044 C53.5139995,13.9479995 53.466,13.8340007 53.466,13.702 L53.466,13.126 C53.466,12.9939993 53.5139995,12.8800005 53.61,12.784 C53.7060005,12.6879995 53.8199993,12.64 53.952,12.64 L55.284,12.64 L55.284,9.706 C55.284,9.57399934 55.3319995,9.46000048 55.428,9.364 C55.5240005,9.26799952 55.6379993,9.22 55.77,9.22 L56.436,9.22 C56.5680007,9.22 56.6819995,9.26799952 56.778,9.364 C56.8740005,9.46000048 56.922,9.57399934 56.922,9.706 L56.922,12.64 L59.208,12.64 C59.3400007,12.64 59.4539995,12.6879995 59.55,12.784 C59.6460005,12.8800005 59.694,12.9939993 59.694,13.126 L59.694,13.702 C59.694,13.8340007 59.6460005,13.9479995 59.55,14.044 C59.4539995,14.1400005 59.3400007,14.188 59.208,14.188 L56.922,14.188 L56.922,18.85 Z M61.008,19.642 C61.008,19.1619976 61.103999,18.7420018 61.296,18.382 C61.488001,18.0219982 61.7519983,17.7160013 62.088,17.464 C62.4240017,17.2119987 62.8169977,17.0080008 63.267,16.852 C63.7170022,16.6959992 64.1939975,16.5760004 64.698,16.492 L67.236,16.078 L67.236,15.844 C67.236,15.2319969 67.035002,14.7730015 66.633,14.467 C66.230998,14.1609985 65.730003,14.008 65.13,14.008 C64.6019974,14.008 64.2030013,14.103999 63.933,14.296 C63.6629986,14.488001 63.432001,14.7159987 63.24,14.98 C63.1679996,15.0760005 63.0900004,15.1419998 63.006,15.178 C62.9219996,15.2140002 62.8080007,15.232 62.664,15.232 L62.124,15.232 C61.9919993,15.232 61.8750005,15.1840005 61.773,15.088 C61.6709995,14.9919995 61.6259999,14.8780007 61.638,14.746 C61.6620001,14.4819987 61.7669991,14.2120014 61.953,13.936 C62.1390009,13.6599986 62.3909984,13.4140011 62.709,13.198 C63.0270016,12.9819989 63.3929979,12.8050007 63.807,12.667 C64.2210021,12.5289993 64.6619977,12.46 65.13,12.46 C65.6700027,12.46 66.1709977,12.5379992 66.633,12.694 C67.0950023,12.8500008 67.4909983,13.0779985 67.821,13.378 C68.1510016,13.6780015 68.4089991,14.0499978 68.595,14.494 C68.7810009,14.9380022 68.874,15.4479971 68.874,16.024 L68.874,21.514 C68.874,21.6460007 68.8260005,21.7599995 68.73,21.856 C68.6339995,21.9520005 68.5200007,22 68.388,22 L67.722,22 C67.5899993,22 67.4760005,21.9520005 67.38,21.856 C67.2839995,21.7599995 67.236,21.6460007 67.236,21.514 L67.236,20.776 C67.1279995,21.0040011 66.9600011,21.2049991 66.732,21.379 C66.5039989,21.5530009 66.2430015,21.6999994 65.949,21.82 C65.6549985,21.9400006 65.3490016,22.0299997 65.031,22.09 C64.7129984,22.1500003 64.4160014,22.18 64.14,22.18 C63.6719977,22.18 63.2430019,22.1140007 62.853,21.982 C62.462998,21.8499993 62.1330013,21.6730011 61.863,21.451 C61.5929986,21.2289989 61.3830007,20.9620016 61.233,20.65 C61.0829992,20.3379984 61.008,20.0020018 61.008,19.642 Z M64.32,20.632 C64.7520022,20.632 65.1479982,20.5660007 65.508,20.434 C65.8680018,20.3019993 66.1769987,20.1190012 66.435,19.885 C66.6930013,19.6509988 66.8909993,19.3720016 67.029,19.048 C67.1670007,18.7239984 67.236,18.364002 67.236,17.968 L67.236,17.518 L65.112,17.86 C64.3559962,17.9800006 63.7560022,18.1719987 63.312,18.436 C62.8679978,18.7000013 62.646,19.0419979 62.646,19.462 C62.646,19.5940007 62.6759997,19.7259993 62.736,19.858 C62.7960003,19.9900007 62.8919993,20.1159994 63.024,20.236 C63.1560007,20.3560006 63.3269989,20.4519996 63.537,20.524 C63.747001,20.5960004 64.0079984,20.632 64.32,20.632 Z M76.254,12.64 C76.3860007,12.64 76.4999995,12.6879995 76.596,12.784 C76.6920005,12.8800005 76.74,12.9939993 76.74,13.126 L76.74,13.702 C76.74,13.8340007 76.6920005,13.9479995 76.596,14.044 C76.4999995,14.1400005 76.3860007,14.188 76.254,14.188 L75.21,14.188 C73.8299931,14.188 73.14,14.8779931 73.14,16.258 L73.14,21.514 C73.14,21.6460007 73.0920005,21.7599995 72.996,21.856 C72.8999995,21.9520005 72.7860007,22 72.654,22 L71.988,22 C71.8559993,22 71.7420005,21.9520005 71.646,21.856 C71.5499995,21.7599995 71.502,21.6460007 71.502,21.514 L71.502,13.126 C71.502,12.9939993 71.5499995,12.8800005 71.646,12.784 C71.7420005,12.6879995 71.8559993,12.64 71.988,12.64 L72.654,12.64 C72.7860007,12.64 72.8999995,12.6879995 72.996,12.784 C73.0920005,12.8800005 73.14,12.9939993 73.14,13.126 L73.14,13.684 C73.3800012,13.3239982 73.6679983,13.0600008 74.004,12.892 C74.3400017,12.7239992 74.7779973,12.64 75.318,12.64 L76.254,12.64 Z M79.944,18.04 L79.944,21.514 C79.944,21.6460007 79.8960005,21.7599995 79.8,21.856 C79.7039995,21.9520005 79.5900007,22 79.458,22 L78.792,22 C78.6599993,22 78.5460005,21.9520005 78.45,21.856 C78.3539995,21.7599995 78.306,21.6460007 78.306,21.514 L78.306,9.706 C78.306,9.57399934 78.3539995,9.46000048 78.45,9.364 C78.5460005,9.26799952 78.6599993,9.22 78.792,9.22 L79.458,9.22 C79.5900007,9.22 79.7039995,9.26799952 79.8,9.364 C79.8960005,9.46000048 79.944,9.57399934 79.944,9.706 L79.944,15.664 L83.454,12.946 C83.5260004,12.8859997 83.6189994,12.8200004 83.733,12.748 C83.8470006,12.6759996 83.9879992,12.64 84.156,12.64 L85.056,12.64 C85.1760006,12.64 85.2779996,12.6819996 85.362,12.766 C85.4460004,12.8500004 85.488,12.9519994 85.488,13.072 C85.488,13.1320003 85.4790001,13.1889997 85.461,13.243 C85.4429999,13.2970003 85.3860005,13.3599996 85.29,13.432 L80.952,16.816 L85.74,21.226 C85.8120004,21.2980004 85.8599999,21.3579998 85.884,21.406 C85.9080001,21.4540002 85.92,21.5079997 85.92,21.568 C85.92,21.6880006 85.8780004,21.7899996 85.794,21.874 C85.7099996,21.9580004 85.6080006,22 85.488,22 L84.642,22 C84.4619991,22 84.3090006,21.9640004 84.183,21.892 C84.0569994,21.8199996 83.9640003,21.7540003 83.904,21.694 L79.944,18.04 Z M88.98,19.822 C89.1120007,19.822 89.2259995,19.8699995 89.322,19.966 C89.4180005,20.0620005 89.466,20.1759993 89.466,20.308 L89.466,21.514 C89.466,21.6460007 89.4180005,21.7599995 89.322,21.856 C89.2259995,21.9520005 89.1120007,22 88.98,22 L87.774,22 C87.6419993,22 87.5280005,21.9520005 87.432,21.856 C87.3359995,21.7599995 87.288,21.6460007 87.288,21.514 L87.288,20.308 C87.288,20.1759993 87.3359995,20.0620005 87.432,19.966 C87.5280005,19.8699995 87.6419993,19.822 87.774,19.822 L88.98,19.822 Z M91.284,19.642 C91.284,19.1619976 91.379999,18.7420018 91.572,18.382 C91.764001,18.0219982 92.0279983,17.7160013 92.364,17.464 C92.7000017,17.2119987 93.0929977,17.0080008 93.543,16.852 C93.9930022,16.6959992 94.4699975,16.5760004 94.974,16.492 L97.512,16.078 L97.512,15.844 C97.512,15.2319969 97.311002,14.7730015 96.909,14.467 C96.506998,14.1609985 96.006003,14.008 95.406,14.008 C94.8779974,14.008 94.4790013,14.103999 94.209,14.296 C93.9389986,14.488001 93.708001,14.7159987 93.516,14.98 C93.4439996,15.0760005 93.3660004,15.1419998 93.282,15.178 C93.1979996,15.2140002 93.0840007,15.232 92.94,15.232 L92.4,15.232 C92.2679993,15.232 92.1510005,15.1840005 92.049,15.088 C91.9469995,14.9919995 91.9019999,14.8780007 91.914,14.746 C91.9380001,14.4819987 92.0429991,14.2120014 92.229,13.936 C92.4150009,13.6599986 92.6669984,13.4140011 92.985,13.198 C93.3030016,12.9819989 93.6689979,12.8050007 94.083,12.667 C94.4970021,12.5289993 94.9379977,12.46 95.406,12.46 C95.9460027,12.46 96.4469977,12.5379992 96.909,12.694 C97.3710023,12.8500008 97.7669983,13.0779985 98.097,13.378 C98.4270016,13.6780015 98.6849991,14.0499978 98.871,14.494 C99.0570009,14.9380022 99.15,15.4479971 99.15,16.024 L99.15,21.514 C99.15,21.6460007 99.1020005,21.7599995 99.006,21.856 C98.9099995,21.9520005 98.7960007,22 98.664,22 L97.998,22 C97.8659993,22 97.7520005,21.9520005 97.656,21.856 C97.5599995,21.7599995 97.512,21.6460007 97.512,21.514 L97.512,20.776 C97.4039995,21.0040011 97.2360011,21.2049991 97.008,21.379 C96.7799989,21.5530009 96.5190015,21.6999994 96.225,21.82 C95.9309985,21.9400006 95.6250016,22.0299997 95.307,22.09 C94.9889984,22.1500003 94.6920014,22.18 94.416,22.18 C93.9479977,22.18 93.5190019,22.1140007 93.129,21.982 C92.738998,21.8499993 92.4090013,21.6730011 92.139,21.451 C91.8689986,21.2289989 91.6590007,20.9620016 91.509,20.65 C91.3589992,20.3379984 91.284,20.0020018 91.284,19.642 Z M94.596,20.632 C95.0280022,20.632 95.4239982,20.5660007 95.784,20.434 C96.1440018,20.3019993 96.4529987,20.1190012 96.711,19.885 C96.9690013,19.6509988 97.1669993,19.3720016 97.305,19.048 C97.4430007,18.7239984 97.512,18.364002 97.512,17.968 L97.512,17.518 L95.388,17.86 C94.6319962,17.9800006 94.0320022,18.1719987 93.588,18.436 C93.1439978,18.7000013 92.922,19.0419979 92.922,19.462 C92.922,19.5940007 92.9519997,19.7259993 93.012,19.858 C93.0720003,19.9900007 93.1679993,20.1159994 93.3,20.236 C93.4320007,20.3560006 93.6029989,20.4519996 93.813,20.524 C94.023001,20.5960004 94.2839984,20.632 94.596,20.632 Z M103.416,21.514 C103.416,21.6460007 103.368,21.7599995 103.272,21.856 C103.176,21.9520005 103.062001,22 102.93,22 L102.264,22 C102.131999,22 102.018,21.9520005 101.922,21.856 C101.826,21.7599995 101.778,21.6460007 101.778,21.514 L101.778,13.126 C101.778,12.9939993 101.826,12.8800005 101.922,12.784 C102.018,12.6879995 102.131999,12.64 102.264,12.64 L102.93,12.64 C103.062001,12.64 103.176,12.6879995 103.272,12.784 C103.368,12.8800005 103.416,12.9939993 103.416,13.126 L103.416,21.514 Z M103.596,10.732 C103.596,10.8640007 103.548,10.9779995 103.452,11.074 C103.356,11.1700005 103.242001,11.218 103.11,11.218 L102.084,11.218 C101.951999,11.218 101.838,11.1700005 101.742,11.074 C101.646,10.9779995 101.598,10.8640007 101.598,10.732 L101.598,9.706 C101.598,9.57399934 101.646,9.46000048 101.742,9.364 C101.838,9.26799952 101.951999,9.22 102.084,9.22 L103.11,9.22 C103.242001,9.22 103.356,9.26799952 103.452,9.364 C103.548,9.46000048 103.596,9.57399934 103.596,9.706 L103.596,10.732 Z"/>
  </g>
</svg>
